Exact Audio Copy V0.99 prebeta 1 from 25. May 2007

EAC 抓取日志文件从22. 二月 2011, 20:44

群星 / 五、六十年代歌坛名人集2

使用驱动器  ：PIONEER DVD-RW  DVR-115   Adapter: 0  ID: 0

读取模式     : 保护
使用精确流   : 是
废除音频缓冲 : 是
使用 C2 指针 : 否

组合读/写偏移校正              : 48
读取 Lead-In 和 Lead-Out       : 否
用静音填充抓取中丢失偏移的采样 : 是
去除首尾静音块                 : 否
已用接口                       : Win NT 及 2000 本地 Win32 接口

所用输出格式 : 内部 WAV 函数
样本格式     : 44.100 Hz;16 Bit;立体声
使用压缩偏移 : 48


被抓轨 CD 的 TOC

     音轨 |   开始   |   长度   | 起始扇区 | 结尾扇区 
    --------------------------------------------------
       1  |  0:00.00 |  3:05.00 |       0  |   13874  
       2  |  3:05.00 |  3:05.62 |   13875  |   27811  
       3  |  6:10.62 |  6:51.63 |   27812  |   58699  
       4  | 13:02.50 |  4:02.25 |   58700  |   76874  
       5  | 17:05.00 |  3:18.62 |   76875  |   91786  
       6  | 20:23.62 |  2:28.13 |   91787  |  102899  
       7  | 22:52.00 |  2:07.50 |  102900  |  112474  
       8  | 24:59.50 |  2:50.12 |  112475  |  125236  
       9  | 27:49.62 |  2:41.13 |  125237  |  137324  
      10  | 30:31.00 |  1:59.00 |  137325  |  146249  
      11  | 32:30.00 |  3:06.62 |  146250  |  160261  
      12  | 35:36.62 |  2:18.63 |  160262  |  170674  
      13  | 37:55.50 |  2:34.25 |  170675  |  182249  
      14  | 40:30.00 |  1:59.50 |  182250  |  191224  
      15  | 42:29.50 |  3:02.62 |  191225  |  204936  
      16  | 45:32.37 |  3:23.13 |  204937  |  220174  
      17  | 48:55.50 |  2:57.50 |  220175  |  233499  
      18  | 51:53.25 |  3:18.00 |  233500  |  248349  
      19  | 55:11.25 |  4:12.25 |  248350  |  267274  


范围状态及错误

已选择范围

     文件名 E:\20世纪中华歌坛名人百集珍藏版-五、六十年代歌坛名人集2[lwg188原创]\群星 - 五、六十年代歌坛名人集2.wav

     峰值电平 92.9 %
     范围质量 100.0 %
     复制 CRC CFA043B2
     复制成功

没有错误发生

状态报告结尾
